# xmcd
#
# Track frame offsets: 
#        183
#        12815
#        27810
#        42613
#        57218
#        69503
#        89588
#        102323
#        117170
#        132703
#        143810
#
# Disc length: 2100 seconds
#
# Revision: 2
# Processed by: cddbd v1.5.2PL0 Copyright (c) Steve Scherf et al.
# Submitted via: ExactAudioCopy v0.99pb4
#
DISCID=9b08320b
DTITLE=Susan Cadogan - Hurt So Good
DYEAR=1976
DGENRE=Reggae
TTITLE0=In The Ghetto
TTITLE1=Nice And Easy
TTITLE2=Hurt So Good
TTITLE3=Congatulations
TTITLE4=If You Need Me
TTITLE5=Lay Down
TTITLE6=I Keep On Loving You
TTITLE7=Don't You Burn Your Bridges
TTITLE8=Feeling Is Right
TTITLE9=Fever
TTITLE10=Shame (Shame on You)
EXTD=Simon
EXTT0=
EXTT1=
EXTT2=
EXTT3=
EXTT4=
EXTT5=
EXTT6=
EXTT7=
EXTT8=
EXTT9=
EXTT10=
PLAYORDER=
